<?xml version="1.0"?>
<svg xmlns="http://www.w3.org/2000/svg" xmlns:xlink="http://www.w3.org/1999/xlink" width="175.25" height="133.25">
	<defs>
		<marker id="CustomMarker-01" markerUnits="strokeWidth" markerWidth="21" markerHeight="12" viewBox="-21 -6 21 12" orient="auto-start-reverse">
			<path d="M 0 -0 L -14 -4, -14 -0.5, -14 0.5, -14 4 Z" fill="#000000" stroke="#000000" stroke-linejoin="round" />
		</marker>
		<marker id="CustomMarker-02" markerUnits="strokeWidth" markerWidth="21" markerHeight="12" viewBox="-21 -6 21 12" orient="auto-start-reverse">
			<path d="M 0 -0 L -14 -4, -14 -0.5, -14 0.5, -14 4 Z" fill="#000000" stroke="#000000" stroke-linejoin="round" />
		</marker>
		<marker id="CustomMarker-03" markerUnits="strokeWidth" markerWidth="21" markerHeight="12" viewBox="-21 -6 21 12" orient="auto-start-reverse">
			<path d="M 0 -0 L -14 -4, -14 -0.5, -14 0.5, -14 4 Z" fill="#000000" stroke="#000000" stroke-linejoin="round" />
		</marker>
		<marker id="CustomMarker-04" markerUnits="strokeWidth" markerWidth="15.000001" markerHeight="9" viewBox="-15 -4.5 15 9" orient="auto-start-reverse">
			<path d="M 0 -0 L -10 -3, -10 -0.5, -10 0.5, -10 3 Z" fill="#84A6AE" stroke="#84A6AE" stroke-linejoin="round" />
		</marker>
		<marker id="CustomMarker-05" markerUnits="strokeWidth" markerWidth="15.000001" markerHeight="9" viewBox="-15 -4.5 15 9" orient="auto-start-reverse">
			<path d="M 0 -0 L -10 -3, -10 -0.5, -10 0.5, -10 3 Z" fill="#84A6AE" stroke="#84A6AE" stroke-linejoin="round" />
		</marker>
		<marker id="CustomMarker-06" markerUnits="strokeWidth" markerWidth="15.000001" markerHeight="9" viewBox="-15 -4.5 15 9" orient="auto-start-reverse">
			<path d="M 0 -0 L -10 -3, -10 -0.5, -10 0.5, -10 3 Z" fill="#84A6AE" stroke="#84A6AE" stroke-linejoin="round" />
		</marker>
		<marker id="CustomMarker-07" markerUnits="strokeWidth" markerWidth="15.000001" markerHeight="9" viewBox="-15 -4.5 15 9" orient="auto-start-reverse">
			<path d="M 0 -0 L -10 -3, -10 -0.5, -10 0.5, -10 3 Z" fill="#FFB0B0" stroke="#FFB0B0" stroke-linejoin="round" />
		</marker>
	</defs>
	<rect x="-0" y="-0" width="175.25" height="133.25" stroke="none" fill="#FFFFFF" />
	<path d="M -308.474 88.0811 L 92.7993 88.0811, 308.474 -88.0811, -92.7993 -88.0811 Z" stroke="none" fill="#80FFFF" fill-opacity="0.117647052" transform="matrix(0.25 0 0 0.25 78.4989 84.9109)" />
	<path d="M -308.474 88.0811 L 92.7993 88.0811, 308.474 -88.0811, -92.7993 -88.0811 Z" fill="none" stroke="#000000" stroke-width="4" stroke-linecap="round" stroke-linejoin="round" transform="matrix(0.25 0 0 0.25 78.4989 84.9109)" />
	<path d="M -52.1934 89.9998 L -52.1934 -197.374" fill="none" stroke="#000000" stroke-width="3" stroke-linecap="round" stroke-linejoin="round" marker-end="url(#CustomMarker-01)" transform="matrix(0.25 0 -0 0.25 91.547 62.4109)" />
	<path d="M -52.1934 89.9998 L -236.848 236.848" fill="none" stroke="#000000" stroke-width="3" stroke-linecap="round" stroke-linejoin="round" marker-end="url(#CustomMarker-02)" transform="matrix(0.25 0 -0 0.25 91.547 62.4109)" />
	<path d="M -52.1934 89.9998 L 274 90.0001" fill="none" stroke="#000000" stroke-width="3" stroke-linecap="round" stroke-linejoin="round" marker-end="url(#CustomMarker-03)" transform="matrix(0.25 0 -0 0.25 91.547 62.4109)" />
	<g transform="matrix(1 0 -0 1 21.9882 116.538)">
		<svg width="38.9999962" height="33.1263084">
			<defs />
			<path d="M 7.17073 7.77794 C 7.11675 7.99431, 7.00654 8.15624, 6.841 8.2642, 6.67547 8.37216, 6.50903 8.42614, 6.34079 8.42569, 6.16806 8.42614, 6.02456 8.37081, 5.91076 8.26015, 5.82709 8.17919, 5.78255 8.07348, 5.77716 7.94348, 5.77716 7.8913, 5.78705 7.82382, 5.80685 7.74195, 5.86127 7.56022, 5.94539 7.42212, 6.05875 7.32856, 6.17256 7.23499, 6.25173 7.18102, 6.29626 7.16617, 6.20269 7.09465, 6.00972 7.05866, 5.71778 7.05821, 5.46093 7.05866, 5.23106 7.19181, 5.02864 7.45811, 4.82622 7.72441, 4.67508 8.04469, 4.57611 8.4185 L 3.89417 11.0527 C 3.8249 11.3172, 3.77317 11.5691, 3.73853 11.8084, 3.71874 11.8903, 3.70884 11.9622, 3.70884 12.0243, 3.70884 12.1737, 3.73358 12.3149, 3.78306 12.449, 3.83255 12.5934, 3.90677 12.7085, 4.00573 12.7949, 4.10469 12.8812, 4.23064 12.9244, 4.38359 12.924, 4.58151 12.9244, 4.77179 12.8732, 4.95442 12.7697, 5.1375 12.6667, 5.30574 12.5277, 5.45868 12.3523, 5.61162 12.1773, 5.74747 11.9735, 5.86622 11.7405, 5.98498 11.5079, 6.07854 11.2691, 6.14782 11.0239, 6.1775 10.8998, 6.26162 10.8372, 6.39972 10.8368 L 6.57021 10.8368 C 6.69886 10.8372, 6.76318 10.8854, 6.76318 10.9807, 6.76318 11.01, 6.75598 11.0365, 6.74114 11.0599, 6.67187 11.3482, 6.55941 11.6325, 6.40377 11.9132, 6.24813 12.1939, 6.06685 12.4422, 5.85903 12.6581, 5.6512 12.8741, 5.41549 13.0517, 5.15099 13.1903, 4.88649 13.3297, 4.60355 13.399, 4.30217 13.399, 3.99583 13.399, 3.73133 13.3333, 3.50912 13.2011, 3.2869 13.0697, 3.10607 12.8979, 2.96752 12.6865, 2.92344 12.6343, 2.8888 12.5803, 2.86406 12.525, 2.83932 12.4701, 2.83168 12.4616, 2.84157 12.4993, 2.72327 12.6964, 2.53569 12.8956, 2.27839 13.0972, 2.02153 13.2987, 1.7251 13.399, 1.38862 13.399, 1.20105 13.399, 1.01572 13.3752, 0.832635 13.327, 0.650005 13.2793, 0.490315 13.2051, 0.354467 13.1044, 0.218619 13.0036, 0.116058 12.8812, 0.046784 12.7369, 0.012597 12.6509, -0.00449651 12.5574, -0.00494634 12.4562, -0.00449651 12.3846, 0.00539973 12.3005, 0.0247424 12.2043, 0.0791717 11.9888, 0.190279 11.8268, 0.358516 11.7189, 0.526752 11.6109, 0.694538 11.557, 0.862324 11.5565, 1.03551 11.557, 1.18395 11.6123, 1.3072 11.722, 1.39132 11.8039, 1.43316 11.9096, 1.43316 12.0387, 1.43316 12.1062, 1.42326 12.1737, 1.40347 12.2402, 1.35939 12.4085, 1.27887 12.5443, 1.16281 12.6473, 1.04675 12.7508, 0.963536 12.807, 0.914054 12.816, 1.00807 12.8934, 1.19835 12.9294, 1.48489 12.924, 1.74219 12.9244, 1.9743 12.7904, 2.18167 12.5214, 2.38949 12.2528, 2.54019 11.9312, 2.6342 11.5565 L 3.32334 8.90791 C 3.39261 8.6587, 3.44704 8.414, 3.48663 8.17379, 3.49652 8.09732, 3.50147 8.02534, 3.50147 7.95787, 3.50147 7.80943, 3.47943 7.67043, 3.43445 7.54043, 3.38542 7.39693, 3.30894 7.28088, 3.20503 7.19181, 3.10112 7.10319, 2.97247 7.05866, 2.81953 7.05821, 2.62161 7.05866, 2.42998 7.11039, 2.24465 7.2134, 2.05932 7.31686, 1.89018 7.45451, 1.73724 7.62725, 1.5843 7.79998, 1.44845 8.0006, 1.3297 8.22822, 1.21094 8.45628, 1.12457 8.69739, 1.0697 8.95109, 1.01572 9.08109, 0.924401 9.14812, 0.795749 9.15262 L 0.632461 9.15262 C 0.514156 9.15307, 0.454779 9.09324, 0.454779 8.97268 L 0.454779 8.9223 C 0.529001 8.62542, 0.642807 8.33618, 0.795749 8.05548, 0.948691 7.77479, 1.13177 7.52648, 1.34409 7.31057, 1.55686 7.09465, 1.79437 6.91831, 2.05617 6.78157, 2.31797 6.64482, 2.60226 6.57645, 2.90815 6.57599, 3.20503 6.57645, 3.46683 6.64122, 3.694 6.77077, 3.92161 6.90032, 4.10694 7.07306, 4.24999 7.28852, 4.27968 7.3416, 4.30712 7.39828, 4.33186 7.45811, 4.3566 7.51839, 4.36379 7.53368, 4.3539 7.50444, 4.4776 7.29392, 4.66788 7.08655, 4.92473 6.88233, 5.18203 6.67856, 5.47577 6.57645, 5.80685 6.57599, 5.99487 6.57645, 6.1811 6.59939, 6.36643 6.64482, 6.55176 6.6907, 6.7128 6.76357, 6.84865 6.86434, 6.9845 6.9651, 7.08481 7.0897, 7.14869 7.23814, 7.18332 7.32496, 7.20042 7.42347, 7.20042 7.53323, 7.20042 7.60565, 7.19052 7.68707, 7.17073 7.77794 Z" stroke="none" fill="#000000" />
			<path d="M 1.86776 2.51203 C 1.35866 2.49591, 0.863162 2.48785, 0.381521 2.48785, -0.0998681 2.48785, -0.595364 2.49591, -1.10471 2.51203 L -1.10471 2.16541, -0.818047 2.16541 C -0.726858 2.16566, -0.640959 2.1644, -0.560853 2.16163, -0.480495 2.15911, -0.40442 2.15231, -0.332376 2.14148, -0.260331 2.1309, -0.198111 2.12007, -0.145715 2.10898, -0.10138 2.10117, -0.0646015 2.07649, -0.0356325 2.03467, -0.00641155 1.99311, 0.00794697 1.94676, 0.00794697 1.89537 L 0.00794697 -2.64697 C -0.130349 -2.57946, -0.300636 -2.52832, -0.502663 -2.49356, -0.70469 -2.45855, -0.926114 -2.44116, -1.16693 -2.44142 L -1.16693 -2.78401 C -0.834673 -2.78375, -0.528105 -2.8233, -0.247232 -2.90265, 0.0336412 -2.98175, 0.276477 -3.13037, 0.481275 -3.34827 L 0.609998 -3.34827 C 0.701188 -3.34802, 0.746782 -3.30368, 0.746782 -3.21527 L 0.746782 1.89537 C 0.746782 1.94928, 0.760637 1.99638, 0.788347 2.03669, 0.816056 2.07699, 0.856361 2.10117, 0.908757 2.10898, 0.953092 2.12007, 1.01002 2.1309, 1.07904 2.14148, 1.14832 2.15231, 1.22641 2.15911, 1.31357 2.16163, 1.40073 2.1644, 1.48587 2.16566, 1.56875 2.16541 L 1.86776 2.16541, 1.86776 2.51203 Z" stroke="none" fill="#000000" transform="matrix(1.12 0 0 1 9.14059 12.8121)" />
			<rect />
		</svg>
	</g>
	<g transform="matrix(1 0 -0 1 161.873 76.0596)">
		<svg width="38.9999962" height="33.1263084">
			<defs />
			<path d="M 7.17073 7.77794 C 7.11675 7.99431, 7.00654 8.15624, 6.841 8.2642, 6.67547 8.37216, 6.50903 8.42614, 6.34079 8.42569, 6.16806 8.42614, 6.02456 8.37081, 5.91076 8.26015, 5.82709 8.17919, 5.78255 8.07348, 5.77716 7.94348, 5.77716 7.8913, 5.78705 7.82382, 5.80685 7.74195, 5.86127 7.56022, 5.94539 7.42212, 6.05875 7.32856, 6.17256 7.23499, 6.25173 7.18102, 6.29626 7.16617, 6.20269 7.09465, 6.00972 7.05866, 5.71778 7.05821, 5.46093 7.05866, 5.23106 7.19181, 5.02864 7.45811, 4.82622 7.72441, 4.67508 8.04469, 4.57611 8.4185 L 3.89417 11.0527 C 3.8249 11.3172, 3.77317 11.5691, 3.73853 11.8084, 3.71874 11.8903, 3.70884 11.9622, 3.70884 12.0243, 3.70884 12.1737, 3.73358 12.3149, 3.78306 12.449, 3.83255 12.5934, 3.90677 12.7085, 4.00573 12.7949, 4.10469 12.8812, 4.23064 12.9244, 4.38359 12.924, 4.58151 12.9244, 4.77179 12.8732, 4.95442 12.7697, 5.1375 12.6667, 5.30574 12.5277, 5.45868 12.3523, 5.61162 12.1773, 5.74747 11.9735, 5.86622 11.7405, 5.98498 11.5079, 6.07854 11.2691, 6.14782 11.0239, 6.1775 10.8998, 6.26162 10.8372, 6.39972 10.8368 L 6.57021 10.8368 C 6.69886 10.8372, 6.76318 10.8854, 6.76318 10.9807, 6.76318 11.01, 6.75598 11.0365, 6.74114 11.0599, 6.67187 11.3482, 6.55941 11.6325, 6.40377 11.9132, 6.24813 12.1939, 6.06685 12.4422, 5.85903 12.6581, 5.6512 12.8741, 5.41549 13.0517, 5.15099 13.1903, 4.88649 13.3297, 4.60355 13.399, 4.30217 13.399, 3.99583 13.399, 3.73133 13.3333, 3.50912 13.2011, 3.2869 13.0697, 3.10607 12.8979, 2.96752 12.6865, 2.92344 12.6343, 2.8888 12.5803, 2.86406 12.525, 2.83932 12.4701, 2.83168 12.4616, 2.84157 12.4993, 2.72327 12.6964, 2.53569 12.8956, 2.27839 13.0972, 2.02153 13.2987, 1.7251 13.399, 1.38862 13.399, 1.20105 13.399, 1.01572 13.3752, 0.832635 13.327, 0.650005 13.2793, 0.490315 13.2051, 0.354467 13.1044, 0.218619 13.0036, 0.116058 12.8812, 0.046784 12.7369, 0.012597 12.6509, -0.00449651 12.5574, -0.00494634 12.4562, -0.00449651 12.3846, 0.00539973 12.3005, 0.0247424 12.2043, 0.0791717 11.9888, 0.190279 11.8268, 0.358516 11.7189, 0.526752 11.6109, 0.694538 11.557, 0.862324 11.5565, 1.03551 11.557, 1.18395 11.6123, 1.3072 11.722, 1.39132 11.8039, 1.43316 11.9096, 1.43316 12.0387, 1.43316 12.1062, 1.42326 12.1737, 1.40347 12.2402, 1.35939 12.4085, 1.27887 12.5443, 1.16281 12.6473, 1.04675 12.7508, 0.963536 12.807, 0.914054 12.816, 1.00807 12.8934, 1.19835 12.9294, 1.48489 12.924, 1.74219 12.9244, 1.9743 12.7904, 2.18167 12.5214, 2.38949 12.2528, 2.54019 11.9312, 2.6342 11.5565 L 3.32334 8.90791 C 3.39261 8.6587, 3.44704 8.414, 3.48663 8.17379, 3.49652 8.09732, 3.50147 8.02534, 3.50147 7.95787, 3.50147 7.80943, 3.47943 7.67043, 3.43445 7.54043, 3.38542 7.39693, 3.30894 7.28088, 3.20503 7.19181, 3.10112 7.10319, 2.97247 7.05866, 2.81953 7.05821, 2.62161 7.05866, 2.42998 7.11039, 2.24465 7.2134, 2.05932 7.31686, 1.89018 7.45451, 1.73724 7.62725, 1.5843 7.79998, 1.44845 8.0006, 1.3297 8.22822, 1.21094 8.45628, 1.12457 8.69739, 1.0697 8.95109, 1.01572 9.08109, 0.924401 9.14812, 0.795749 9.15262 L 0.632461 9.15262 C 0.514156 9.15307, 0.454779 9.09324, 0.454779 8.97268 L 0.454779 8.9223 C 0.529001 8.62542, 0.642807 8.33618, 0.795749 8.05548, 0.948691 7.77479, 1.13177 7.52648, 1.34409 7.31057, 1.55686 7.09465, 1.79437 6.91831, 2.05617 6.78157, 2.31797 6.64482, 2.60226 6.57645, 2.90815 6.57599, 3.20503 6.57645, 3.46683 6.64122, 3.694 6.77077, 3.92161 6.90032, 4.10694 7.07306, 4.24999 7.28852, 4.27968 7.3416, 4.30712 7.39828, 4.33186 7.45811, 4.3566 7.51839, 4.36379 7.53368, 4.3539 7.50444, 4.4776 7.29392, 4.66788 7.08655, 4.92473 6.88233, 5.18203 6.67856, 5.47577 6.57645, 5.80685 6.57599, 5.99487 6.57645, 6.1811 6.59939, 6.36643 6.64482, 6.55176 6.6907, 6.7128 6.76357, 6.84865 6.86434, 6.9845 6.9651, 7.08481 7.0897, 7.14869 7.23814, 7.18332 7.32496, 7.20042 7.42347, 7.20042 7.53323, 7.20042 7.60565, 7.19052 7.68707, 7.17073 7.77794 Z" stroke="none" fill="#000000" />
			<path d="M 1.87885 2.51203 L -1.50019 2.51203, -1.50019 2.29035 C -1.50019 2.27448, -1.49188 2.2503, -1.47526 2.21781 L -0.117743 0.742655 C 0.0427202 0.565566, 0.205198 0.384195, 0.369944 0.198793, 0.534689 0.0133917, 0.682305 -0.17604, 0.812288 -0.369503, 0.94227 -0.562965, 1.04606 -0.762474, 1.12364 -0.968027, 1.20123 -1.17358, 1.23977 -1.38921, 1.23977 -1.61517, 1.23977 -1.80561, 1.21483 -1.98371, 1.16495 -2.14895, 1.11508 -2.3142, 1.04328 -2.4593, 0.949072 -2.58425, 0.855112 -2.70919, 0.737472 -2.80995, 0.596406 -2.88653, 0.455339 -2.96311, 0.291853 -3.0014, 0.106452 -3.00165, -0.170139 -3.0014, -0.414486 -2.91877, -0.626338 -2.75353, -0.837937 -2.58828, -0.9785 -2.40615, -1.04777 -2.20765, -1.06138 -2.20211, -1.03921 -2.19934, -0.981271 -2.19959 L -0.910738 -2.19959 C -0.827609 -2.18044, -0.755816 -2.15147, -0.694856 -2.11268, -0.633895 -2.07364, -0.582758 -2.01998, -0.541194 -1.95146, -0.49963 -1.88294, -0.478974 -1.80032, -0.478974 -1.70384, -0.478974 -1.54237, -0.53137 -1.41868, -0.636666 -1.33278, -0.741962 -1.24663, -0.859601 -1.20381, -0.989584 -1.20406, -1.11402 -1.20381, -1.2304 -1.24663, -1.33822 -1.33278, -1.44603 -1.41868, -1.50019 -1.54237, -1.50019 -1.70384, -1.50019 -1.92929, -1.45586 -2.14291, -1.36719 -2.34443, -1.27852 -2.54596, -1.15836 -2.72053, -1.00621 -2.86839, -0.854059 -3.01601, -0.674199 -3.13289, -0.46663 -3.21904, -0.259061 -3.30494, -0.0388968 -3.34802, 0.193611 -3.34827, 0.481537 -3.34802, 0.745281 -3.3057, 0.98459 -3.22106, 1.2239 -3.13642, 1.42794 -3.01475, 1.59672 -2.8563, 1.76549 -2.6976, 1.89774 -2.51422, 1.99322 -2.30614, 2.08869 -2.09782, 2.1363 -1.86758, 2.1363 -1.61517, 2.1363 -1.33556, 2.07282 -1.07811, 1.94535 -0.843083, 1.81814 -0.607804, 1.66045 -0.392174, 1.47228 -0.196193, 1.2841 4.07696e-005, 1.08409 0.184687, 0.872241 0.357997, 0.660641 0.531307, 0.468942 0.699831, 0.297395 0.863569 L -0.657574 1.76236, 0.592124 1.76236 C 0.766441 1.76262, 0.929171 1.76136, 1.07981 1.75858, 1.2307 1.75607, 1.35867 1.75052, 1.46396 1.74246, 1.56926 1.7344, 1.62317 1.72911, 1.62569 1.72609, 1.64785 1.70745, 1.66876 1.66991, 1.68816 1.61349, 1.70756 1.55706, 1.72544 1.49056, 1.74207 1.41398, 1.75869 1.3374, 1.77532 1.25956, 1.79194 1.18021, 1.80857 1.10111, 1.82368 1.01421, 1.83754 0.919995 L 2.14461 0.919995 Z" stroke="none" fill="#000000" transform="matrix(1.12 0 0 1 9.4726 12.8121)" />
			<rect />
		</svg>
	</g>
	<g transform="matrix(1 0 -0 1 72.5573 -5.64993)">
		<svg width="41.8799934" height="33.1263084">
			<defs />
			<path d="M 7.17073 7.77794 C 7.11675 7.99431, 7.00654 8.15624, 6.841 8.2642, 6.67547 8.37216, 6.50903 8.42614, 6.34079 8.42569, 6.16806 8.42614, 6.02456 8.37081, 5.91076 8.26015, 5.82709 8.17919, 5.78255 8.07348, 5.77716 7.94348, 5.77716 7.8913, 5.78705 7.82382, 5.80685 7.74195, 5.86127 7.56022, 5.94539 7.42212, 6.05875 7.32856, 6.17256 7.23499, 6.25173 7.18102, 6.29626 7.16617, 6.20269 7.09465, 6.00972 7.05866, 5.71778 7.05821, 5.46093 7.05866, 5.23106 7.19181, 5.02864 7.45811, 4.82622 7.72441, 4.67508 8.04469, 4.57611 8.4185 L 3.89417 11.0527 C 3.8249 11.3172, 3.77317 11.5691, 3.73853 11.8084, 3.71874 11.8903, 3.70884 11.9622, 3.70884 12.0243, 3.70884 12.1737, 3.73358 12.3149, 3.78306 12.449, 3.83255 12.5934, 3.90677 12.7085, 4.00573 12.7949, 4.10469 12.8812, 4.23064 12.9244, 4.38359 12.924, 4.58151 12.9244, 4.77179 12.8732, 4.95442 12.7697, 5.1375 12.6667, 5.30574 12.5277, 5.45868 12.3523, 5.61162 12.1773, 5.74747 11.9735, 5.86622 11.7405, 5.98498 11.5079, 6.07854 11.2691, 6.14782 11.0239, 6.1775 10.8998, 6.26162 10.8372, 6.39972 10.8368 L 6.57021 10.8368 C 6.69886 10.8372, 6.76318 10.8854, 6.76318 10.9807, 6.76318 11.01, 6.75598 11.0365, 6.74114 11.0599, 6.67187 11.3482, 6.55941 11.6325, 6.40377 11.9132, 6.24813 12.1939, 6.06685 12.4422, 5.85903 12.6581, 5.6512 12.8741, 5.41549 13.0517, 5.15099 13.1903, 4.88649 13.3297, 4.60355 13.399, 4.30217 13.399, 3.99583 13.399, 3.73133 13.3333, 3.50912 13.2011, 3.2869 13.0697, 3.10607 12.8979, 2.96752 12.6865, 2.92344 12.6343, 2.8888 12.5803, 2.86406 12.525, 2.83932 12.4701, 2.83168 12.4616, 2.84157 12.4993, 2.72327 12.6964, 2.53569 12.8956, 2.27839 13.0972, 2.02153 13.2987, 1.7251 13.399, 1.38862 13.399, 1.20105 13.399, 1.01572 13.3752, 0.832635 13.327, 0.650005 13.2793, 0.490315 13.2051, 0.354467 13.1044, 0.218619 13.0036, 0.116058 12.8812, 0.046784 12.7369, 0.012597 12.6509, -0.00449651 12.5574, -0.00494634 12.4562, -0.00449651 12.3846, 0.00539973 12.3005, 0.0247424 12.2043, 0.0791717 11.9888, 0.190279 11.8268, 0.358516 11.7189, 0.526752 11.6109, 0.694538 11.557, 0.862324 11.5565, 1.03551 11.557, 1.18395 11.6123, 1.3072 11.722, 1.39132 11.8039, 1.43316 11.9096, 1.43316 12.0387, 1.43316 12.1062, 1.42326 12.1737, 1.40347 12.2402, 1.35939 12.4085, 1.27887 12.5443, 1.16281 12.6473, 1.04675 12.7508, 0.963536 12.807, 0.914054 12.816, 1.00807 12.8934, 1.19835 12.9294, 1.48489 12.924, 1.74219 12.9244, 1.9743 12.7904, 2.18167 12.5214, 2.38949 12.2528, 2.54019 11.9312, 2.6342 11.5565 L 3.32334 8.90791 C 3.39261 8.6587, 3.44704 8.414, 3.48663 8.17379, 3.49652 8.09732, 3.50147 8.02534, 3.50147 7.95787, 3.50147 7.80943, 3.47943 7.67043, 3.43445 7.54043, 3.38542 7.39693, 3.30894 7.28088, 3.20503 7.19181, 3.10112 7.10319, 2.97247 7.05866, 2.81953 7.05821, 2.62161 7.05866, 2.42998 7.11039, 2.24465 7.2134, 2.05932 7.31686, 1.89018 7.45451, 1.73724 7.62725, 1.5843 7.79998, 1.44845 8.0006, 1.3297 8.22822, 1.21094 8.45628, 1.12457 8.69739, 1.0697 8.95109, 1.01572 9.08109, 0.924401 9.14812, 0.795749 9.15262 L 0.632461 9.15262 C 0.514156 9.15307, 0.454779 9.09324, 0.454779 8.97268 L 0.454779 8.9223 C 0.529001 8.62542, 0.642807 8.33618, 0.795749 8.05548, 0.948691 7.77479, 1.13177 7.52648, 1.34409 7.31057, 1.55686 7.09465, 1.79437 6.91831, 2.05617 6.78157, 2.31797 6.64482, 2.60226 6.57645, 2.90815 6.57599, 3.20503 6.57645, 3.46683 6.64122, 3.694 6.77077, 3.92161 6.90032, 4.10694 7.07306, 4.24999 7.28852, 4.27968 7.3416, 4.30712 7.39828, 4.33186 7.45811, 4.3566 7.51839, 4.36379 7.53368, 4.3539 7.50444, 4.4776 7.29392, 4.66788 7.08655, 4.92473 6.88233, 5.18203 6.67856, 5.47577 6.57645, 5.80685 6.57599, 5.99487 6.57645, 6.1811 6.59939, 6.36643 6.64482, 6.55176 6.6907, 6.7128 6.76357, 6.84865 6.86434, 6.9845 6.9651, 7.08481 7.0897, 7.14869 7.23814, 7.18332 7.32496, 7.20042 7.42347, 7.20042 7.53323, 7.20042 7.60565, 7.19052 7.68707, 7.17073 7.77794 Z" stroke="none" fill="#000000" />
			<path d="M 2.21466 0.992544 C 2.21466 1.22379, 2.16352 1.44572, 2.06125 1.65782, 1.95898 1.87018, 1.82194 2.05155, 1.65014 2.20168, 1.45643 2.37122, 1.24256 2.49666, 1.00879 2.57853, 0.775026 2.66065, 0.530679 2.70146, 0.276003 2.70146, 0.0462667 2.70146, -0.177676 2.66922, -0.396329 2.60473, -0.614982 2.54024, -0.811971 2.44779, -0.9878 2.32688, -1.16363 2.20597, -1.30394 2.0576, -1.40924 1.88151, -1.51453 1.70568, -1.56718 1.50341, -1.56718 1.27468, -1.56718 1.10288, -1.50975 0.974659, -1.39488 0.890019, -1.28001 0.805379, -1.15884 0.763059, -1.03163 0.762807, -0.898626 0.763059, -0.774941 0.805379, -0.660073 0.890019, -0.545205 0.974659, -0.48777 1.10288, -0.48777 1.27468, -0.48777 1.37695, -0.507671 1.46235, -0.547976 1.53086, -0.588028 1.59938, -0.639165 1.65656, -0.701637 1.70216, -0.763858 1.748, -0.835147 1.77597, -0.915504 1.78655, -0.956816 1.79763, -0.99561 1.80292, -1.03163 1.80267, -1.0674 1.80292, -1.07294 1.80569, -1.04826 1.81073, -0.962358 1.96137, -0.793582 2.09462, -0.541678 2.21, -0.289774 2.32562, -0.0172132 2.38331, 0.276003 2.38306, 0.414551 2.38331, 0.543778 2.34905, 0.664188 2.28053, 0.784598 2.21201, 0.885108 2.12007, 0.965214 2.00419, 1.06497 1.85406, 1.13273 1.69284, 1.16875 1.52079, 1.20477 1.34899, 1.22266 1.17291, 1.22266 0.992544, 1.22266 0.807394, 1.20477 0.62955, 1.16875 0.458759, 1.13273 0.288219, 1.06497 0.130275, 0.965214 -0.0150735, 0.882085 -0.132965, 0.781071 -0.228436, 0.662173 -0.300985, 0.543274 -0.373533, 0.414551 -0.409807, 0.276003 -0.410059 L -0.325796 -0.410059 C -0.405902 -0.409807, -0.448977 -0.447341, -0.454519 -0.522913 L -0.454519 -0.567248 C -0.454519 -0.59924, -0.444695 -0.624682, -0.42555 -0.643827, -0.400612 -0.667758, -0.368872 -0.679849, -0.330078 -0.680101, -0.249721 -0.690681, -0.166592 -0.695971, -0.080945 -0.696223, 0.00218344 -0.695971, 0.0838004 -0.701261, 0.163906 -0.712345, 0.313537 -0.722924, 0.44352 -0.769023, 0.554358 -0.851144, 0.665195 -0.933013, 0.757896 -1.0378, 0.83246 -1.16552, 0.907024 -1.29298, 0.963702 -1.4401, 1.0025 -1.60686, 1.04129 -1.77337, 1.06069 -1.94416, 1.06069 -2.11898, 1.06069 -2.2477, 1.04683 -2.36987, 1.01912 -2.4855, 0.991411 -2.60087, 0.940275 -2.70188, 0.865459 -2.78804, 0.710538 -2.96513, 0.514053 -3.05254, 0.276003 -3.05002, 0.02158 -3.04976, -0.211683 -3.0019, -0.423283 -2.90668, -0.634883 -2.81121, -0.776957 -2.70843, -0.849001 -2.5986, -0.868146 -2.59558, -0.858574 -2.59432, -0.81978 -2.59457, -0.720026 -2.59432, -0.626066 -2.56485, -0.537647 -2.5059, -0.404642 -2.42781, -0.338391 -2.29607, -0.338391 -2.11092, -0.338391 -1.95474, -0.388772 -1.8371, -0.489786 -1.758, -0.590799 -1.67865, -0.703653 -1.6391, -0.828093 -1.63935, -0.950015 -1.6391, -1.06413 -1.67789, -1.17068 -1.75598, -1.27724 -1.83382, -1.33064 -1.95222, -1.33064 -2.11092, -1.33064 -2.3069, -1.28354 -2.47996, -1.18932 -2.6306, -1.09511 -2.78098, -0.974198 -2.90996, -0.826078 -3.01752, -0.677958 -3.12483, -0.507167 -3.20695, -0.313453 -3.26338, -0.119486 -3.31981, 0.0769989 -3.34802, 0.276003 -3.34827, 0.489114 -3.34802, 0.695424 -3.31981, 0.89468 -3.26338, 1.09394 -3.20695, 1.28211 -3.11954, 1.4592 -3.00165, 1.60329 -2.89938, 1.7242 -2.77368, 1.82244 -2.62455, 1.92069 -2.47542, 1.96981 -2.3069, 1.96981 -2.11898, 1.96981 -1.93055, 1.93605 -1.75321, 1.86829 -1.5867, 1.80053 -1.41994, 1.7106 -1.26956, 1.5985 -1.13529, 1.4864 -1.00078, 1.35289 -0.882632, 1.19772 -0.780611, 1.0428 -0.678338, 0.92642 -0.614102, 0.848834 -0.5874, 0.915336 -0.579087, 1.02895 -0.539286, 1.18941 -0.468249, 1.35012 -0.39696, 1.50353 -0.302244, 1.65014 -0.184353, 1.82194 -0.0362334, 1.95898 0.140352, 2.06125 0.345905, 2.16352 0.551459, 2.21466 0.767089, 2.21466 0.992544 Z" stroke="none" fill="#000000" transform="matrix(1.12 0 0 1 9.5391 12.8121)" />
			<rect />
		</svg>
	</g>
	<path d="M 82.8008 -14.8926 L -82.7999 14.8922" fill="none" stroke="#84A6AE" stroke-width="4" stroke-linecap="round" stroke-linejoin="round" marker-end="url(#CustomMarker-04)" transform="matrix(0.25 0 0 0.25 57.7987 88.6341)" />
	<path d="M -82.2632 35.7087 L 82.2634 -35.7087" fill="none" stroke="#84A6AE" stroke-width="4" stroke-linecap="round" stroke-linejoin="round" marker-end="url(#CustomMarker-05)" transform="matrix(0.25 0 0 0.25 99.0647 75.9837)" />
	<path d="M -32.8478 -28.3034 L 32.8489 28.304" fill="none" stroke="#84A6AE" stroke-width="4" stroke-linecap="round" stroke-linejoin="round" marker-end="url(#CustomMarker-06)" transform="matrix(0.25 0 0 0.25 86.7108 91.9868)" />
	<g transform="matrix(1 0 -0 1 27.8266 83.5513)">
		<svg width="32.951992" height="27.1578903">
			<defs />
			<path d="M 9.00176 10.9879 C 8.97207 11.2569, 8.90684 11.5318, 8.80518 11.8125, 8.70397 12.0931, 8.57172 12.3523, 8.40888 12.5898, 8.24605 12.8273, 8.04947 13.0229, 7.81961 13.1759, 7.58974 13.3297, 7.3239 13.4062, 7.02251 13.4062, 6.6469 13.4062, 6.30593 13.3356, 5.9996 13.1939, 5.69327 13.0526, 5.49309 12.9006, 5.39908 12.7369, 5.22634 12.8956, 4.98523 13.0468, 4.6762 13.1903, 4.36762 13.3342, 4.0352 13.4062, 3.67893 13.4062, 3.30377 13.4062, 2.92547 13.3549, 2.54491 13.2515, 2.16436 13.1489, 1.85802 12.9438, 1.62546 12.6361, 1.3884 12.3199, 1.26965 11.96, 1.26965 11.5565, 1.26965 11.1732, 1.31418 10.794, 1.40325 10.4193, 1.48736 10.0982, 1.60837 9.73155, 1.76671 9.3186, 1.92505 8.90611, 2.07574 8.51251, 2.21879 8.1378, 2.36723 7.75905, 2.441 7.48825, 2.441 7.32451 L 2.441 7.28133 C 2.4365 7.19046, 2.41896 7.14503, 2.38927 7.14458, 2.24623 7.14503, 2.11263 7.18821, 1.98892 7.27458, 1.86567 7.36095, 1.74691 7.4833, 1.63311 7.64164, 1.51975 7.79998, 1.41584 7.98621, 1.32183 8.19943, 1.22826 8.4131, 1.14909 8.63981, 1.08432 8.87912, 1.02539 9.05725, 0.916531 9.14092, 0.758191 9.13102 L 0.261579 9.11663 C 0.083897 9.08334, -0.00516918 8.97538, -0.00516918 8.79275, 0.0245195 8.49092, 0.111337 8.19358, 0.254382 7.90074, 0.397878 7.60835, 0.578259 7.34925, 0.795527 7.12344, 1.01324 6.89807, 1.2602 6.71319, 1.53684 6.56925, 1.81349 6.4253, 2.10768 6.35333, 2.41896 6.35288, 2.71045 6.35333, 2.9799 6.40371, 3.22685 6.50447, 3.47426 6.60523, 3.67803 6.74828, 3.83862 6.93271, 3.99921 7.11759, 4.10177 7.32991, 4.1463 7.56922, 4.1562 7.64659, 4.16115 7.72306, 4.16115 7.79953, 4.16115 7.98216, 4.12426 8.17199, 4.04959 8.36811, 3.89665 8.74282, 3.74686 9.13057, 3.60111 9.53092, 3.45537 9.93172, 3.34066 10.283, 3.25654 10.5849, 3.18277 10.9069, 3.12564 11.2043, 3.08606 11.4773, 3.07616 11.5691, 3.07121 11.6627, 3.07121 11.758, 3.07121 11.9218, 3.0937 12.0824, 3.13779 12.2402, 3.17737 12.3509, 3.2444 12.4422, 3.33796 12.5142, 3.43197 12.5862, 3.55568 12.6221, 3.70862 12.6217, 3.99066 12.6221, 4.24796 12.5394, 4.48008 12.3738, 4.71219 12.2083, 4.91956 11.991, 5.10219 11.722, 5.11748 11.6168, 5.13728 11.5282, 5.16157 11.4557 L 6.22181 7.31012 C 6.28614 7.04202, 6.43458 6.83825, 6.6667 6.6988, 6.89881 6.5598, 7.12867 6.49008, 7.35583 6.48963, 7.59334 6.49008, 7.79082 6.567, 7.94916 6.71994, 8.05307 6.8306, 8.1075 6.98444, 8.112 7.18057, 8.112 7.26738, 8.1021 7.3632, 8.08231 7.46846 L 6.99282 11.5997 C 6.91905 11.893, 6.88171 12.1278, 6.88171 12.305, 6.88171 12.5119, 6.93884 12.6172, 7.0522 12.6217, 7.22538 12.6221, 7.37608 12.4665, 7.50428 12.1543, 7.63293 11.8426, 7.76608 11.4225, 7.90462 10.8944, 7.93926 10.7365, 8.04812 10.6523, 8.23075 10.6425 L 8.72736 10.6425 C 8.92034 10.7054, 9.01165 10.8206, 9.00176 10.9879 Z" stroke="none" fill="#84A6AE" />
			<rect />
		</svg>
	</g>
	<g transform="matrix(1 0 -0 1 95.3099 87.186)">
		<svg width="26.9039955" height="27.1578903">
			<defs />
			<path d="M 7.18287 9.51248 C 7.06952 9.93037, 6.91972 10.3685, 6.73439 10.8264, 6.54906 11.2848, 6.3219 11.7036, 6.05245 12.0824, 5.78345 12.4616, 5.46812 12.7769, 5.10736 13.0288, 4.7466 13.2807, 4.34355 13.4062, 3.89867 13.4062, 3.50372 13.4062, 3.10337 13.3572, 2.69808 13.2587, 2.29278 13.1606, 1.95901 12.9532, 1.69721 12.6361, 1.43541 12.3343, 1.29911 11.9838, 1.28921 11.5853, 1.27932 11.5376, 1.27437 11.4827, 1.27437 11.4198, 1.27437 11.0842, 1.3216 10.7509, 1.41516 10.4193, 1.49433 10.0982, 1.61309 9.73155, 1.77143 9.3186, 1.92977 8.90611, 2.08046 8.51251, 2.22351 8.1378, 2.37195 7.75905, 2.44572 7.48825, 2.44572 7.32451 L 2.44572 7.28133 C 2.44123 7.19046, 2.42368 7.14503, 2.39399 7.14458, 2.25095 7.14503, 2.11735 7.18821, 1.99365 7.27458, 1.87039 7.36095, 1.75164 7.4833, 1.63783 7.64164, 1.52447 7.79998, 1.42056 7.98621, 1.32655 8.19943, 1.23298 8.4131, 1.15381 8.63981, 1.08904 8.87912, 1.03011 9.05725, 0.921253 9.14092, 0.762913 9.13102 L 0.266302 9.11663 C 0.0886191 9.08334, -0.000447109 8.97538, -0.000447109 8.79275, 0.0292416 8.49092, 0.116059 8.19358, 0.259104 7.90074, 0.4026 7.60835, 0.582981 7.34925, 0.800249 7.12344, 1.01797 6.89807, 1.26492 6.71319, 1.54157 6.56925, 1.81821 6.4253, 2.1124 6.35333, 2.42368 6.35288, 2.71517 6.35333, 2.98462 6.40371, 3.23157 6.50447, 3.47898 6.60523, 3.68275 6.74828, 3.84334 6.93271, 4.00393 7.11759, 4.10649 7.33441, 4.15103 7.58361, 4.16092 7.66098, 4.16587 7.73296, 4.16587 7.79953, 4.16587 7.98216, 4.12898 8.17199, 4.05431 8.36811, 3.90137 8.74282, 3.75158 9.13057, 3.60583 9.53092, 3.46009 9.93172, 3.34538 10.283, 3.26126 10.5849, 3.18749 10.9069, 3.13531 11.2043, 3.10562 11.4773, 3.09573 11.5498, 3.09078 11.6195, 3.09078 11.6861, 3.09078 11.8786, 3.12317 12.0536, 3.18704 12.2115, 3.2959 12.4854, 3.54331 12.6221, 3.92836 12.6217, 4.19556 12.6221, 4.44027 12.5313, 4.66248 12.3487, 4.8847 12.1665, 5.08487 11.924, 5.263 11.6217, 5.44113 11.3194, 5.59902 10.9668, 5.73757 10.5637, 5.87612 10.1607, 5.99937 9.75269, 6.10778 9.33974, 6.13297 9.25383, 6.14512 9.17241, 6.14512 9.09504, 6.14512 8.96099, 6.11048 8.83414, 6.04121 8.71358, 5.93235 8.5269, 5.76951 8.36631, 5.55179 8.23137, 5.2801 8.05908, 5.14425 7.84091, 5.14425 7.57642, 5.14425 7.54808, 5.1492 7.52154, 5.15909 7.49725, 5.16899 7.26243, 5.26165 7.04427, 5.43709 6.84274, 5.61252 6.64122, 5.83878 6.49008, 6.11543 6.38887, 6.20944 6.35558, 6.31065 6.33894, 6.41906 6.33849, 6.60214 6.33894, 6.77263 6.39651, 6.93097 6.51122, 7.16848 6.67001, 7.32637 6.87378, 7.40509 7.12299, 7.46986 7.32991, 7.5045 7.54808, 7.509 7.77794 L 7.509 7.92188 C 7.48921 8.20528, 7.44512 8.48642, 7.37585 8.76441, 7.30658 9.04286, 7.24225 9.29206, 7.18287 9.51248 Z" stroke="none" fill="#84A6AE" />
			<rect />
		</svg>
	</g>
	<g transform="matrix(1 0 -0 1 118.25 62.8678)">
		<svg width="38.9999962" height="27.1578903">
			<defs />
			<path d="M 10.7588 9.51248 C 10.6499 9.93532, 10.5154 10.373, 10.3548 10.8264, 10.1943 11.2799, 9.99543 11.6964, 9.75792 12.0752, 9.52086 12.4544, 9.23297 12.771, 8.89425 13.0252, 8.55598 13.2793, 8.15428 13.4062, 7.68961 13.4062, 7.28476 13.4062, 6.87452 13.3549, 6.45932 13.2515, 6.04413 13.1489, 5.74005 12.9771, 5.54707 12.7369, 5.41392 12.8907, 5.2151 13.0409, 4.9506 13.1867, 4.6861 13.3333, 4.37841 13.4062, 4.02755 13.4062, 3.61281 13.4062, 3.19491 13.3608, 2.77477 13.2695, 2.35463 13.1786, 2.00377 12.9748, 1.72217 12.6577, 1.46037 12.3509, 1.31913 11.9888, 1.29933 11.5709 L 1.29933 11.3766 C 1.29933 11.0509, 1.33397 10.7315, 1.40324 10.4193, 1.48736 10.0982, 1.61107 9.73155, 1.7739 9.3186, 1.93719 8.90611, 2.09058 8.51251, 2.23363 8.1378, 2.38207 7.75905, 2.45584 7.48825, 2.45584 7.32451 L 2.45584 7.28133 C 2.45135 7.19046, 2.42886 7.14503, 2.38927 7.14458, 2.24622 7.14503, 2.11263 7.18821, 1.98892 7.27458, 1.86567 7.36095, 1.74691 7.4833, 1.63311 7.64164, 1.51975 7.79998, 1.41584 7.98621, 1.32183 8.19943, 1.22826 8.4131, 1.14909 8.63981, 1.08432 8.87912, 1.02539 9.05725, 0.91653 9.14092, 0.75819 9.13102 L 0.261579 9.11663 C 0.0838963 9.08334, -0.00516984 8.97538, -0.00516984 8.79275, 0.0245189 8.49092, 0.111336 8.19358, 0.254382 7.90074, 0.397877 7.60835, 0.578258 7.34925, 0.795526 7.12344, 1.01324 6.89807, 1.2602 6.71319, 1.53684 6.56925, 1.81349 6.4253, 2.10768 6.35333, 2.41896 6.35288, 2.71045 6.35333, 2.9799 6.40371, 3.22685 6.50447, 3.47426 6.60523, 3.67803 6.74828, 3.83862 6.93271, 3.99921 7.11759, 4.10177 7.32991, 4.1463 7.56922, 4.1562 7.64659, 4.16115 7.72306, 4.16115 7.79953, 4.16115 7.98216, 4.12426 8.17199, 4.04959 8.36811, 3.90654 8.74282, 3.75945 9.13057, 3.60876 9.53092, 3.45806 9.93172, 3.34066 10.283, 3.25654 10.5849, 3.18277 10.9069, 3.13059 11.2115, 3.1009 11.4989, 3.091 11.552, 3.08606 11.6096, 3.08606 11.6717, 3.08606 11.8687, 3.12564 12.0464, 3.20481 12.2043, 3.27408 12.3392, 3.38024 12.4422, 3.52329 12.5142, 3.66678 12.5862, 3.84492 12.6221, 4.05724 12.6217, 4.27495 12.6221, 4.46748 12.5394, 4.63572 12.3738, 4.80395 12.2083, 4.95465 11.9865, 5.08779 11.7076, 5.07295 11.6217, 5.0653 11.516, 5.0653 11.391, 5.0653 11.2857, 5.0752 11.1827, 5.09499 11.0815, 5.11478 10.8611, 5.14942 10.6407, 5.1989 10.4193 L 5.9996 7.31012 C 6.06392 7.04202, 6.21102 6.83825, 6.44043 6.6988, 6.67029 6.5598, 6.89881 6.49008, 7.12642 6.48963, 7.36393 6.49008, 7.56365 6.567, 7.72649 6.71994, 7.8304 6.8306, 7.88213 6.98444, 7.88213 7.18057, 7.88213 7.26738, 7.87269 7.3632, 7.85289 7.46846 L 7.03735 10.5849 C 6.96358 10.9069, 6.9114 11.2043, 6.88171 11.4773, 6.87182 11.5403, 6.86687 11.6051, 6.86687 11.6717, 6.86687 11.8687, 6.9042 12.0486, 6.97798 12.2115, 7.08684 12.4854, 7.33379 12.6221, 7.7193 12.6217, 7.9667 12.6221, 8.18667 12.5371, 8.37919 12.3666, 8.57172 12.1966, 8.7449 11.9613, 8.89785 11.6613, 9.05124 11.3617, 9.19114 11.01, 9.31709 10.6069, 9.44304 10.2039, 9.56044 9.78148, 9.66885 9.33974, 9.69404 9.25383, 9.70889 9.17241, 9.71339 9.09504, 9.71339 8.96099, 9.6765 8.83414, 9.60228 8.71358, 9.48892 8.5269, 9.33328 8.36631, 9.13536 8.23137, 8.94283 8.12161, 8.82407 7.97496, 8.77954 7.79233, 8.7449 7.71586, 8.72511 7.63219, 8.72016 7.54043, 8.72016 7.45451, 8.73501 7.37039, 8.7647 7.28852, 8.80923 7.13063, 8.892 6.98219, 9.013 6.84274, 9.13401 6.70375, 9.27345 6.58994, 9.43179 6.50087, 9.59013 6.41226, 9.76062 6.36278, 9.94325 6.35288 L 9.99498 6.35288 C 10.1682 6.35333, 10.3337 6.40596, 10.4916 6.51122, 10.7291 6.67001, 10.8897 6.87378, 10.9738 7.12299, 11.0381 7.32991, 11.0701 7.54808, 11.0701 7.77794 L 11.0701 7.92188 C 11.0503 8.20528, 11.0098 8.48642, 10.9477 8.76441, 10.8861 9.04286, 10.8231 9.29206, 10.7588 9.51248 Z" stroke="none" fill="#84A6AE" />
			<rect />
		</svg>
	</g>
	<path d="M -62.9421 108.106 L 62.9421 -108.106" fill="none" stroke="#FFB0B0" stroke-width="4" stroke-linecap="round" stroke-linejoin="round" marker-end="url(#CustomMarker-07)" transform="matrix(0.25 0 0 0.25 94.2346 57.8844)" />
	<g transform="matrix(1 0 -0 1 112.065 22.0521)">
		<svg width="24.0239983" height="39.0947304">
			<defs />
			<path d="M 6.58437 9.95871 C 6.46607 10.4198, 6.28434 10.866, 6.03963 11.2979, 5.79492 11.7297, 5.47015 12.1161, 5.06485 12.4562, 4.69419 12.7877, 4.2844 13.0288, 3.83457 13.1795, 3.38474 13.3306, 2.93491 13.4062, 2.48508 13.4062, 2.04065 13.4062, 1.63041 13.3239, 1.2548 13.1583, 0.879192 12.9928, 0.585003 12.7351, 0.372234 12.3842, 0.135174 12.0104, 0.0114713 11.5952, 0.00157505 11.1391 L 0.00157505 11.0383 C 0.00157505 10.6357, 0.0537552 10.2327, 0.157216 9.82916 L 1.71407 3.80505 C 1.71407 3.74297, 1.63041 3.75287, 1.46217 3.83384, 1.57598 3.85813, 1.44733 3.87027, 1.07667 3.86982, 0.96331 3.87027, 0.866596 3.83429, 0.787426 3.76231, 0.708256 3.69034, 0.668671 3.59453, 0.668671 3.47397, 0.668671 3.4119, 0.678568 3.37141, 0.69836 3.35162 L 0.728049 3.22927 C 0.773032 3.02324, 0.898984 2.92023, 1.10636 2.91978 L 2.43335 2.84781 C 2.58629 2.83881, 2.73834 2.82937, 2.88903 2.81947, 3.04017 2.81003, 3.18951 2.80508, 3.33751 2.80463, 3.45131 2.80508, 3.54758 2.83881, 3.62675 2.90584, 3.70592 2.97331, 3.7455 3.06643, 3.7455 3.18608 L 3.7455 3.27245, 3.55253 3.98498 C 3.41938 4.47979, 3.29207 4.97056, 3.17107 5.45727, 3.05007 5.94444, 2.95245 6.33669, 2.87778 6.63357, 3.17962 6.45184, 3.59976 6.35828, 4.1382 6.35288, 4.58308 6.35333, 5.00053 6.43745, 5.39098 6.60523, 5.78143 6.77347, 6.09541 7.03212, 6.33247 7.38209, 6.56998 7.74735, 6.69818 8.15984, 6.71797 8.62002 L 6.71797 8.79995 C 6.71797 9.194, 6.67344 9.57995, 6.58437 9.95871 Z M 4.8053 7.72036 C 4.76122 7.55302, 4.67845 7.41493, 4.55699 7.30697, 4.43599 7.19901, 4.28665 7.14503, 4.10851 7.14458, 3.86651 7.14503, 3.6173 7.21115, 3.36 7.34295, 3.10315 7.4752, 2.87823 7.64659, 2.68526 7.85711, 2.65107 7.90569, 2.61643 7.94752, 2.58179 7.98351, 2.54716 8.0195, 2.52242 8.05188, 2.50712 8.08022 L 2.00331 9.9875 C 1.89446 10.3959, 1.81034 10.7774, 1.75096 11.1319, 1.72172 11.2857, 1.70688 11.4274, 1.70688 11.5565, 1.70688 11.7297, 1.73162 11.888, 1.78065 12.0315, 1.83553 12.2142, 1.92459 12.3585, 2.04785 12.4638, 2.17155 12.5695, 2.33214 12.6221, 2.52961 12.6217, 2.72754 12.6221, 2.93266 12.5601, 3.14498 12.435, 3.3573 12.3104, 3.54038 12.1422, 3.69332 11.9308, 3.89125 11.6721, 4.05319 11.3518, 4.17914 10.9704, 4.30509 10.5889, 4.41755 10.1989, 4.51606 9.80037, 4.62492 9.39777, 4.71398 9.00687, 4.78326 8.62722, 4.82284 8.42614, 4.84264 8.24621, 4.84264 8.08742, 4.84264 7.94887, 4.83049 7.82652, 4.8053 7.72036 Z" stroke="none" fill="#FFBBBB" />
			<rect />
		</svg>
	</g>
</svg>
