<?xml version="1.0"?>
<svg xmlns="http://www.w3.org/2000/svg" xmlns:xlink="http://www.w3.org/1999/xlink" width="176.25" height="139.583328">
	<defs>
		<marker id="CustomMarker-01" markerUnits="strokeWidth" markerWidth="21" markerHeight="12" viewBox="-21 -6 21 12" orient="auto-start-reverse">
			<path d="M 0 -0 L -14 -4, -14 -0.5, -14 0.5, -14 4 Z" fill="#000000" stroke="#000000" stroke-linejoin="round" />
		</marker>
		<marker id="CustomMarker-02" markerUnits="strokeWidth" markerWidth="21" markerHeight="12" viewBox="-21 -6 21 12" orient="auto-start-reverse">
			<path d="M 0 -0 L -14 -4, -14 -0.5, -14 0.5, -14 4 Z" fill="#000000" stroke="#000000" stroke-linejoin="round" />
		</marker>
		<marker id="CustomMarker-03" markerUnits="strokeWidth" markerWidth="21" markerHeight="12" viewBox="-21 -6 21 12" orient="auto-start-reverse">
			<path d="M 0 -0 L -14 -4, -14 -0.5, -14 0.5, -14 4 Z" fill="#000000" stroke="#000000" stroke-linejoin="round" />
		</marker>
	</defs>
	<rect x="-0" y="-0" width="176.25" height="139.583328" stroke="none" fill="#FFFFFF" />
	<path d="M -117.6 120 L -117.6 -236.848" fill="none" stroke="#000000" stroke-width="3.60000014" stroke-linecap="round" stroke-linejoin="round" marker-end="url(#CustomMarker-01)" transform="matrix(0.208333 0 -0 0.208333 101.614 68.8584)" />
	<path d="M -117.6 120 L -284.218 284.218" fill="none" stroke="#000000" stroke-width="3.60000014" stroke-linecap="round" stroke-linejoin="round" marker-end="url(#CustomMarker-02)" transform="matrix(0.208333 0 -0 0.208333 101.614 68.8584)" />
	<path d="M -117.6 120 L 307.2 120" fill="none" stroke="#000000" stroke-width="3.60000014" stroke-linecap="round" stroke-linejoin="round" marker-end="url(#CustomMarker-03)" transform="matrix(0.208333 0 -0 0.208333 101.614 68.8584)" />
	<g transform="matrix(1 0 -0 1 73.409 92.9393)">
		<svg width="32.951992" height="39.0947304">
			<defs />
			<path d="M 9.63557 8.18099 C 9.45743 8.87732, 9.16954 9.54891, 8.77189 10.1967, 8.37424 10.8444, 7.87359 11.4368, 7.27081 11.9739, 6.72742 12.4589, 6.13275 12.8444, 5.48769 13.1296, 4.84264 13.4147, 4.19668 13.5573, 3.54938 13.5573, 2.89713 13.5573, 2.3173 13.4138, 1.81079 13.126, 1.30428 12.8381, 0.900336 12.4494, 0.59895 11.9595, 0.267876 11.418, 0.0775981 10.8179, 0.0281169 10.1602, 0.00832438 10.0023, -0.00157177 9.844, -0.00157177 9.68521, -0.00157177 9.1913, 0.0627537 8.68029, 0.190955 8.1522, 0.378984 7.44731, 0.669123 6.76267, 1.06227 6.09783, 1.45542 5.43343, 1.95788 4.83246, 2.57055 4.29446, 3.11439 3.81045, 3.70862 3.42044, 4.35367 3.12536, 4.99873 2.83027, 5.64963 2.68272, 6.30683 2.68227, 6.95908 2.68272, 7.53621 2.83162, 8.03777 3.12895, 8.53978 3.42674, 8.94103 3.81989, 9.24242 4.30886, 9.57349 4.85135, 9.76871 5.45592, 9.82809 6.12257, 9.83799 6.2863, 9.84294 6.44689, 9.84294 6.60478, 9.84294 7.11849, 9.77411 7.64389, 9.63557 8.18099 Z M 8.13808 4.55356 C 7.97525 4.15097, 7.73054 3.82349, 7.40396 3.57159, 7.07784 3.31968, 6.67749 3.19373, 6.20292 3.19328, 5.73375 3.19373, 5.26683 3.32238, 4.80215 3.57878, 4.33793 3.83564, 3.92274 4.16761, 3.55658 4.57516, 3.09685 5.06997, 2.73384 5.60616, 2.46709 6.18419, 2.20034 6.76267, 1.99252 7.3488, 1.84408 7.94348, 1.67134 8.59168, 1.56518 9.22279, 1.5256 9.83636, 1.5157 9.95196, 1.51075 10.0671, 1.51075 10.1818, 1.51075 10.6622, 1.58992 11.1323, 1.74781 11.5925, 1.90121 12.0009, 2.13602 12.3428, 2.45225 12.6185, 2.76848 12.8947, 3.16388 13.0324, 3.638 13.0319, 4.12741 13.0324, 4.60603 12.892, 5.07295 12.6114, 5.53987 12.3307, 5.95866 11.9838, 6.32932 11.5709, 6.80884 11.0149, 7.18175 10.427, 7.4485 9.80802, 7.7157 9.18905, 7.93296 8.55794, 8.10075 7.91469, 8.25414 7.31551, 8.3504 6.72534, 8.38999 6.14416 L 8.38999 5.89225 C 8.38999 5.41274, 8.30632 4.96651, 8.13808 4.55356 Z" stroke="none" fill="#000000" />
			<rect />
		</svg>
	</g>
	<g transform="matrix(1 0 -0 1 33.7934 123.501)">
		<svg width="26.9039955" height="27.1578903">
			<defs />
			<path d="M 7.17073 7.77794 C 7.11675 7.99431, 7.00654 8.15624, 6.841 8.2642, 6.67547 8.37216, 6.50903 8.42614, 6.34079 8.42569, 6.16806 8.42614, 6.02456 8.37081, 5.91076 8.26015, 5.82709 8.17919, 5.78255 8.07348, 5.77716 7.94348, 5.77716 7.8913, 5.78705 7.82382, 5.80685 7.74195, 5.86127 7.56022, 5.94539 7.42212, 6.05875 7.32856, 6.17256 7.23499, 6.25173 7.18102, 6.29626 7.16617, 6.20269 7.09465, 6.00972 7.05866, 5.71778 7.05821, 5.46093 7.05866, 5.23106 7.19181, 5.02864 7.45811, 4.82622 7.72441, 4.67508 8.04469, 4.57611 8.4185 L 3.89417 11.0527 C 3.8249 11.3172, 3.77317 11.5691, 3.73853 11.8084, 3.71874 11.8903, 3.70884 11.9622, 3.70884 12.0243, 3.70884 12.1737, 3.73358 12.3149, 3.78306 12.449, 3.83255 12.5934, 3.90677 12.7085, 4.00573 12.7949, 4.10469 12.8812, 4.23064 12.9244, 4.38359 12.924, 4.58151 12.9244, 4.77179 12.8732, 4.95442 12.7697, 5.1375 12.6667, 5.30574 12.5277, 5.45868 12.3523, 5.61162 12.1773, 5.74747 11.9735, 5.86622 11.7405, 5.98498 11.5079, 6.07854 11.2691, 6.14782 11.0239, 6.1775 10.8998, 6.26162 10.8372, 6.39972 10.8368 L 6.57021 10.8368 C 6.69886 10.8372, 6.76318 10.8854, 6.76318 10.9807, 6.76318 11.01, 6.75598 11.0365, 6.74114 11.0599, 6.67187 11.3482, 6.55941 11.6325, 6.40377 11.9132, 6.24813 12.1939, 6.06685 12.4422, 5.85903 12.6581, 5.6512 12.8741, 5.41549 13.0517, 5.15099 13.1903, 4.88649 13.3297, 4.60355 13.399, 4.30217 13.399, 3.99583 13.399, 3.73133 13.3333, 3.50912 13.2011, 3.2869 13.0697, 3.10607 12.8979, 2.96752 12.6865, 2.92344 12.6343, 2.8888 12.5803, 2.86406 12.525, 2.83932 12.4701, 2.83168 12.4616, 2.84157 12.4993, 2.72327 12.6964, 2.53569 12.8956, 2.27839 13.0972, 2.02153 13.2987, 1.7251 13.399, 1.38862 13.399, 1.20105 13.399, 1.01572 13.3752, 0.832635 13.327, 0.650005 13.2793, 0.490315 13.2051, 0.354467 13.1044, 0.218619 13.0036, 0.116058 12.8812, 0.046784 12.7369, 0.012597 12.6509, -0.00449651 12.5574, -0.00494634 12.4562, -0.00449651 12.3846, 0.00539973 12.3005, 0.0247424 12.2043, 0.0791717 11.9888, 0.190279 11.8268, 0.358516 11.7189, 0.526752 11.6109, 0.694538 11.557, 0.862324 11.5565, 1.03551 11.557, 1.18395 11.6123, 1.3072 11.722, 1.39132 11.8039, 1.43316 11.9096, 1.43316 12.0387, 1.43316 12.1062, 1.42326 12.1737, 1.40347 12.2402, 1.35939 12.4085, 1.27887 12.5443, 1.16281 12.6473, 1.04675 12.7508, 0.963536 12.807, 0.914054 12.816, 1.00807 12.8934, 1.19835 12.9294, 1.48489 12.924, 1.74219 12.9244, 1.9743 12.7904, 2.18167 12.5214, 2.38949 12.2528, 2.54019 11.9312, 2.6342 11.5565 L 3.32334 8.90791 C 3.39261 8.6587, 3.44704 8.414, 3.48663 8.17379, 3.49652 8.09732, 3.50147 8.02534, 3.50147 7.95787, 3.50147 7.80943, 3.47943 7.67043, 3.43445 7.54043, 3.38542 7.39693, 3.30894 7.28088, 3.20503 7.19181, 3.10112 7.10319, 2.97247 7.05866, 2.81953 7.05821, 2.62161 7.05866, 2.42998 7.11039, 2.24465 7.2134, 2.05932 7.31686, 1.89018 7.45451, 1.73724 7.62725, 1.5843 7.79998, 1.44845 8.0006, 1.3297 8.22822, 1.21094 8.45628, 1.12457 8.69739, 1.0697 8.95109, 1.01572 9.08109, 0.924401 9.14812, 0.795749 9.15262 L 0.632461 9.15262 C 0.514156 9.15307, 0.454779 9.09324, 0.454779 8.97268 L 0.454779 8.9223 C 0.529001 8.62542, 0.642807 8.33618, 0.795749 8.05548, 0.948691 7.77479, 1.13177 7.52648, 1.34409 7.31057, 1.55686 7.09465, 1.79437 6.91831, 2.05617 6.78157, 2.31797 6.64482, 2.60226 6.57645, 2.90815 6.57599, 3.20503 6.57645, 3.46683 6.64122, 3.694 6.77077, 3.92161 6.90032, 4.10694 7.07306, 4.24999 7.28852, 4.27968 7.3416, 4.30712 7.39828, 4.33186 7.45811, 4.3566 7.51839, 4.36379 7.53368, 4.3539 7.50444, 4.4776 7.29392, 4.66788 7.08655, 4.92473 6.88233, 5.18203 6.67856, 5.47577 6.57645, 5.80685 6.57599, 5.99487 6.57645, 6.1811 6.59939, 6.36643 6.64482, 6.55176 6.6907, 6.7128 6.76357, 6.84865 6.86434, 6.9845 6.9651, 7.08481 7.0897, 7.14869 7.23814, 7.18332 7.32496, 7.20042 7.42347, 7.20042 7.53323, 7.20042 7.60565, 7.19052 7.68707, 7.17073 7.77794 Z" stroke="none" fill="#000000" />
			<rect />
		</svg>
	</g>
	<g transform="matrix(1 0 -0 1 167.779 82.5927)">
		<svg width="24.0239983" height="35.9684143">
			<defs />
			<path d="M 5.17596 13.1759 C 5.0725 13.5789, 4.90921 13.964, 4.68699 14.331, 4.46478 14.6981, 4.20253 15.0247, 3.90114 15.3099, 3.59976 15.5955, 3.26149 15.8272, 2.88588 16.0044, 2.51027 16.1821, 2.11982 16.2707, 1.71407 16.2707, 1.47207 16.2707, 1.24985 16.2266, 1.04698 16.1376, 0.844555 16.0489, 0.679018 15.9288, 0.550367 15.7777, 0.421716 15.6266, 0.335348 15.448, 0.290815 15.2415, 0.271023 15.1506, 0.261127 15.0571, 0.261127 14.9608, 0.261127 14.8362, 0.275971 14.7089, 0.30566 14.5794, 0.360089 14.3634, 0.471197 14.2015, 0.639433 14.0935, 0.807669 13.9856, 0.973206 13.9316, 1.13604 13.9316, 1.30923 13.9316, 1.45497 13.9869, 1.57328 14.0971, 1.6574 14.179, 1.69923 14.2843, 1.69923 14.4138, 1.69923 14.4669, 1.68933 14.5317, 1.66954 14.6081, 1.61556 14.8241, 1.50445 14.986, 1.33622 15.094, 1.16798 15.2019, 1.03483 15.2559, 0.93587 15.2559, 0.965559 15.3854, 1.05822 15.5069, 1.21386 15.6194, 1.36951 15.7323, 1.56833 15.7885, 1.81034 15.7885, 2.07754 15.7885, 2.32719 15.7165, 2.5593 15.5726, 2.79186 15.4286, 3.00463 15.2357, 3.19716 14.9932, 3.38969 14.7512, 3.55882 14.4705, 3.70457 14.1511, 3.85031 13.8322, 3.96772 13.4975, 4.05678 13.1471 L 4.10132 12.9744 C 4.02755 13.0418, 3.8719 13.1296, 3.63439 13.2371, 3.39733 13.345, 3.13778 13.399, 2.85574 13.399, 2.52017 13.399, 2.21968 13.3369, 1.95518 13.2119, 1.69068 13.0877, 1.48196 12.8956, 1.32857 12.6361, 1.18058 12.3581, 1.10905 12.0513, 1.11355 11.7148 L 1.11355 11.6573 C 1.12345 11.3073, 1.16798 10.9596, 1.24715 10.6137, 1.32632 10.283, 1.44148 9.91867, 1.59217 9.52013, 1.74286 9.12203, 1.88726 8.73562, 2.02536 8.36092, 2.1738 7.96327, 2.24802 7.63669, 2.24802 7.38209, 2.24802 7.16662, 2.15671 7.05866, 1.97363 7.05821, 1.80584 7.05866, 1.6538 7.10679, 1.51795 7.20261, 1.3821 7.29887, 1.2584 7.43202, 1.14729 7.60206, 1.03618 7.77254, 0.93587 7.97406, 0.846804 8.20662, 0.757738 8.43964, 0.683966 8.68749, 0.624588 8.95109, 0.570159 9.08109, 0.478844 9.14812, 0.350193 9.15262 L 0.179708 9.15262 C 0.0609527 9.15307, 0.00157523 9.09324, 0.00157523 8.97268 L 0.00157523 8.9223 C 0.0708489 8.6587, 0.162614 8.38926, 0.275971 8.11306, 0.389778 7.83732, 0.533273 7.58676, 0.706008 7.36095, 0.879192 7.13558, 1.07712 6.94845, 1.29933 6.79956, 1.52155 6.65112, 1.77615 6.57645, 2.06269 6.57599, 2.3101 6.57645, 2.52107 6.62952, 2.6965 6.73478, 2.87193 6.84049, 3.00553 6.98084, 3.09685 7.15582, 3.18861 7.33126, 3.239 7.52873, 3.24889 7.74915 L 3.24889 7.79953 C 3.24889 8.00645, 3.20706 8.21967, 3.12249 8.44009, 2.97944 8.81479, 2.83775 9.1976, 2.6965 9.5885, 2.5557 9.97985, 2.44595 10.3312, 2.36678 10.6429, 2.28761 10.9551, 2.23318 11.2641, 2.20349 11.5709, 2.1837 11.6528, 2.17155 11.7418, 2.1666 11.8372, 2.1666 12.0248, 2.19899 12.2097, 2.26287 12.3914, 2.3074 12.5551, 2.38882 12.6847, 2.50757 12.7805, 2.62633 12.8768, 2.76712 12.9244, 2.92996 12.924, 3.24664 12.9244, 3.52329 12.8309, 3.76035 12.6437, 3.99786 12.4566, 4.20523 12.2119, 4.38291 11.9092 L 5.57631 7.26693 C 5.62129 7.0897, 5.71126 6.95925, 5.8471 6.87513, 5.98295 6.79146, 6.12015 6.74918, 6.25825 6.74873, 6.40174 6.74918, 6.5205 6.79236, 6.61451 6.87828, 6.67884 6.94126, 6.71078 7.02492, 6.71078 7.13018, 6.71078 7.18326, 6.70583 7.23859, 6.69593 7.29572 Z" stroke="none" fill="#000000" />
			<rect />
		</svg>
	</g>
	<g transform="matrix(1 0 -0 1 73.3184 3.04695)">
		<svg width="24.0239983" height="27.1578903">
			<defs />
			<path d="M 6.25555 6.87108 C 5.96901 7.38029, 5.62939 7.85171, 5.23624 8.2858, 4.84353 8.72033, 4.43194 9.13867, 4.0019 9.54172, 3.57187 9.94477, 3.14228 10.3456, 2.71224 10.7437, 2.28221 11.1422, 1.93134 11.4994, 1.65919 11.8156, 1.6448 11.821, 1.69923 11.8233, 1.82248 11.8228, 2.01501 11.8233, 2.18684 11.8484, 2.33754 11.8988, 2.48868 11.9492, 2.63173 12.0068, 2.76757 12.0716, 2.90342 12.1363, 3.04062 12.1917, 3.17917 12.2371, 3.31771 12.283, 3.45581 12.3055, 3.59391 12.305, 3.76709 12.3055, 3.94118 12.2731, 4.11661 12.2083, 4.29204 12.1435, 4.44903 12.0527, 4.58758 11.9348, 4.72613 11.8174, 4.84938 11.6807, 4.95824 11.5246, 5.0671 11.3689, 5.14582 11.2065, 5.1953 11.0383, 5.22499 10.9043, 5.30911 10.8372, 5.44721 10.8368 L 5.61814 10.8368 C 5.74679 10.8372, 5.81067 10.8899, 5.81067 10.9951, 5.81067 11.0244, 5.80347 11.0509, 5.78863 11.0743, 5.71935 11.3626, 5.60959 11.6447, 5.4589 11.9204, 5.30821 12.1966, 5.12648 12.4422, 4.91371 12.6581, 4.70139 12.8741, 4.46298 13.0517, 4.19848 13.1903, 3.93398 13.3297, 3.65374 13.399, 3.35685 13.399, 3.11484 13.399, 2.92501 13.3378, 2.78647 13.2155, 2.64792 13.0936, 2.52826 12.9604, 2.4266 12.8165, 2.32539 12.6725, 2.22418 12.5493, 2.12252 12.4458, 2.02131 12.3428, 1.88906 12.2911, 1.72622 12.2906, 1.5139 12.2911, 1.31103 12.3846, 1.11805 12.5718, 0.925524 12.7589, 0.75234 12.987, 0.599398 13.2551, 0.544968 13.3464, 0.465798 13.3945, 0.361888 13.399 L 0.14687 13.399 C 0.0483571 13.3513, -0.000674309 13.291, -0.00112414 13.2191, -0.000674309 13.1858, 0.0114711 13.1498, 0.0357618 13.1111, 0.322753 12.6172, 0.660125 12.1521, 1.04788 11.7153, 1.43563 11.279, 1.83958 10.8588, 2.25972 10.4558, 2.67986 10.0527, 3.10495 9.65597, 3.53498 9.26462, 3.96502 8.87372, 4.33073 8.50531, 4.63212 8.15939 L 4.70589 8.15939 C 4.51336 8.15984, 4.34198 8.1324, 4.19083 8.07708, 4.04014 8.0222, 3.89575 7.96462, 3.7572 7.90434, 3.6191 7.84451, 3.4819 7.78918, 3.34605 7.7388, 3.21021 7.68842, 3.07031 7.66323, 2.92681 7.66278, 2.67986 7.66323, 2.45494 7.73161, 2.25252 7.86835, 2.0501 8.0051, 1.92145 8.17199, 1.86702 8.36811, 1.83733 8.50306, 1.75096 8.57234, 1.60746 8.57683 L 1.43698 8.57683 C 1.31822 8.57728, 1.25885 8.51746, 1.25885 8.3969 L 1.25885 8.34652 C 1.31373 8.11666, 1.40009 7.89849, 1.51885 7.69202, 1.6376 7.486, 1.78065 7.29977, 1.94844 7.13423, 2.11667 6.9687, 2.30425 6.83465, 2.51207 6.73119, 2.71989 6.62818, 2.93941 6.57645, 3.17152 6.57599, 3.41398 6.57645, 3.60291 6.63897, 3.73875 6.76357, 3.8746 6.88863, 3.99606 7.02043, 4.10222 7.15942, 4.20838 7.29887, 4.31094 7.42212, 4.4099 7.53008, 4.50886 7.63804, 4.63706 7.69202, 4.79495 7.69157, 4.9434 7.69202, 5.08689 7.6034, 5.22544 7.42572, 5.36399 7.24849, 5.51918 7.01053, 5.69191 6.71274, 5.75669 6.62188, 5.83316 6.57645, 5.92178 6.57599 L 6.08506 6.57599 C 6.16423 6.57645, 6.22091 6.61018, 6.25555 6.67676, 6.26544 6.70105, 6.27534 6.72759, 6.28524 6.75593, 6.28524 6.79011, 6.27534 6.82835, 6.25555 6.87108 Z" stroke="none" fill="#000000" />
			<rect />
		</svg>
	</g>
	<path d="M -202.826 0 L -400.695 -198.261, 202.826 0, 400.695 198.261 Z" stroke="none" fill="#FF8080" fill-opacity="0.46274507" transform="matrix(0.208333 0 0 0.208333 84.657 76.6678)" />
	<path d="M 267.055 -56.9339 L 267.055 -265.575, -267.055 56.9339, -267.055 265.575 Z" stroke="none" fill="#C4B6F7" fill-opacity="0.392156839" transform="matrix(0.208333 0 0 0.208333 69.9419 57.9527)" />
	<path d="M 53.0085 300.997 L -30.3999 213.92, -53.0085 -300.997, 30.3999 -213.92 Z" stroke="none" fill="#80FFFF" fill-opacity="0.392156839" transform="matrix(0.208333 0 0 0.208333 114.198 63.928)" />
	<path d="M 0 0 L 80.8542 159.819" fill="none" stroke="#000000" stroke-width="4.80000019" stroke-linecap="round" stroke-linejoin="round" transform="matrix(0.208333 0 0 0.208333 46.6307 50.2951)" />
	<path d="M 0 0 L 84.0039 156.725" fill="none" stroke="#000000" stroke-width="4.80000019" stroke-linecap="round" stroke-linejoin="round" transform="matrix(0.208333 0 0 0.208333 103.794 15.7789)" />
	<path d="M 0 0 L 86.7018 161.759" fill="none" stroke="#000000" stroke-width="4.80000019" stroke-linecap="round" stroke-linejoin="round" transform="matrix(0.208333 0 0 0.208333 106.165 69.7789)" />
	<path d="M 189.939 190.177 L 194.805 300.997, 111.396 213.921, 109.189 163.65, -101.671 94.3807, -337.687 236.893, -337.687 28.2523, -274.024 -10.1887, -400.695 -137.11, -182.523 -65.4393, 91.8567 -231.116, 88.7887 -300.997, 132.321 -255.55, 196.423 -294.256, 196.423 -85.6155, 178.31 -74.6785, 184.003 54.9674, 202.826 61.1506, 400.695 259.411, 189.939 190.177" stroke="none" fill="#FFFFFF" fill-opacity="0" transform="matrix(0.208333 0 -0 0.208333 84.657 63.928)" />
	<path d="M 189.939 190.177 L 194.805 300.997, 111.396 213.921, 109.189 163.65, -101.671 94.3807, -337.687 236.893, -337.687 28.2523, -274.024 -10.1887, -400.695 -137.11, -182.523 -65.4393, 91.8567 -231.116, 88.7887 -300.997, 132.321 -255.55, 196.423 -294.256, 196.423 -85.6155, 178.31 -74.6785, 184.003 54.9674, 202.826 61.1506, 400.695 259.411, 189.939 190.177" fill="none" stroke="#000000" stroke-width="4.80000019" stroke-linecap="round" stroke-linejoin="round" transform="matrix(0.208333 0 -0 0.208333 84.657 63.928)" />
	<path d="M 0 0 L 71.1984 71.3395, 172.354 104.57, 452.334 -64.4891, 446.371 -200.294, 406.345 -245.361" fill="none" stroke="#000000" stroke-width="4.80000019" stroke-linecap="round" stroke-linejoin="round" transform="matrix(0.208333 0 0 0.208333 27.5685 61.8054)" />
	<path d="M 0 0 L 61.9921 20.3647, 59.5204 -35.9397" fill="none" stroke="#000000" stroke-width="4.80000019" stroke-linecap="round" stroke-linejoin="round" transform="matrix(0.208333 0 0 0.208333 93.2528 65.6105)" />
	<path d="M 0 0 L 80.7494 26.5269, 74.813 -108.683" fill="none" stroke="#000000" stroke-width="4.80000019" stroke-linecap="round" stroke-linejoin="round" transform="matrix(0.208333 0 0 0.208333 107.405 98.0218)" />
	<path d="M 0 0 L 91.5001 -55.2501, 315.285 18.2645" fill="none" stroke="#000000" stroke-width="4.80000019" stroke-linecap="round" stroke-linejoin="round" stroke-dasharray="7.224, 11.976" transform="matrix(0.208333 0 0 0.208333 27.5685 61.8054)" />
	<path d="M 0 0 L -8.92285 -203.253, 31.5405 -227.685" fill="none" stroke="#000000" stroke-width="4.80000019" stroke-linecap="round" stroke-linejoin="round" stroke-dasharray="7.224, 11.976" transform="matrix(0.208333 0 0 0.208333 105.653 58.123)" />
	<path d="M 0 0 L -5.93713 -135.21, 74.8125 -108.683" fill="none" stroke="#000000" stroke-width="4.80000019" stroke-linecap="round" stroke-linejoin="round" stroke-dasharray="7.224, 11.976" transform="matrix(0.208333 0 0 0.208333 107.405 98.0218)" />
</svg>
